# xmcd
# 
# Track frame offsets:
#     150
#     12902
#     31882
#     45827
#     62097
#     78035
#     90745
#     102305
#     118045
#     129107
#     143232
# 
# Disc length: 2017
# 
# Revision: 3
# Processed by: cddbd v1.5.2PL0 Copyright (c) Steve Scherf et al.
# Submitted via: BonkEnc v1.0.15
# 
DISCID=7d07df0b
DTITLE=Eric Clapton d - Ceam Disraeli gears
DYEAR=1967
DGENRE=Rock
TTITLE0=Strange brew
TTITLE1=Sunshine of your love
TTITLE2=World of pain
TTITLE3=Dance the night away
TTITLE4=Blue condition
TTITLE5=Tales of brave Ulysses
TTITLE6=Swlabr
TTITLE7=We're going wrong
TTITLE8=Outside woman blues
TTITLE9=Take it back
TTITLE10=Mother's lament
EXTD=
EXTT0=
EXTT1=
EXTT2=
EXTT3=
EXTT4=
EXTT5=
EXTT6=
EXTT7=
EXTT8=
EXTT9=
EXTT10=
PLAYORDER=
